<svg width="16" height="16" viewBox="0 0 16 16" fill="none" xmlns="http://www.w3.org/2000/svg">
<path d="M12.9451 4.45269C13.6319 5.18179 14.0007 6.00008 14.0007 7.32655C14.0007 9.65948 12.363 11.7509 9.98031 12.7846L9.38518 11.8662C11.6087 10.6631 12.0432 9.10268 12.217 8.11875C11.859 8.30388 11.3903 8.36895 10.9309 8.32641C9.72798 8.21488 8.77991 7.22735 8.77991 6.00008C8.77991 4.71141 9.82458 3.66675 11.1132 3.66675C11.8286 3.66675 12.5127 3.99371 12.9451 4.45269ZM6.27844 4.45269C6.96525 5.18179 7.33405 6.00008 7.33405 7.32655C7.33405 9.65948 5.69637 11.7509 3.31365 12.7846L2.71853 11.8662C4.94202 10.6631 5.37659 9.10268 5.55029 8.11875C5.19229 8.30388 4.72366 8.36895 4.26424 8.32641C3.06133 8.21488 2.11328 7.22735 2.11328 6.00008C2.11328 4.71141 3.15795 3.66675 4.44661 3.66675C5.16198 3.66675 5.84607 3.99371 6.27844 4.45269Z" fill="white"/>
</svg>
