<svg width="97" height="97" viewBox="0 0 97 97" fill="none" xmlns="http://www.w3.org/2000/svg">
<g opacity="0.1">
<path d="M57.5937 63.6562V78.8125L75.7812 63.6562H87.9062C89.514 63.6562 91.0563 63.0177 92.1932 61.8807C93.3302 60.7438 93.9687 59.2015 93.9687 57.5937V9.09375C93.9687 7.48589 93.3302 5.94384 92.1932 4.80692C91.0563 3.66997 89.514 3.03125 87.9062 3.03125H39.4062C37.7984 3.03125 36.2563 3.66997 35.1194 4.80692C33.9825 5.94384 33.3438 7.48589 33.3438 9.09375" stroke="white" stroke-width="4" stroke-linecap="round" stroke-linejoin="round"/>
<path d="M71.2344 20.5764H60.625C59.364 20.575 58.1418 21.013 57.1686 21.8151C56.1957 22.6172 55.5325 23.7333 55.2932 24.9715C55.054 26.2097 55.2536 27.4924 55.8579 28.5993C56.4621 29.7062 57.4333 30.5679 58.6042 31.0363L69.3348 34.3706C70.5028 34.8407 71.4712 35.7026 72.0734 36.8085C72.6756 37.9144 72.8745 39.1954 72.6356 40.4319C72.3968 41.6683 71.7347 42.783 70.7639 43.5848C69.7931 44.3867 68.5733 44.8256 67.314 44.8264H54.5625" stroke="white" stroke-width="4" stroke-linecap="round" stroke-linejoin="round"/>
<path d="M63.6562 20.5764V14.5139" stroke="white" stroke-width="4" stroke-linecap="round" stroke-linejoin="round"/>
<path d="M63.6562 50.8889V44.8264" stroke="white" stroke-width="4" stroke-linecap="round" stroke-linejoin="round"/>
<path d="M5.96875 37.7249C10.9416 42.8781 17.366 46.3943 24.3869 47.8061C31.4077 49.2174 38.6919 48.4572 45.2701 45.6264" stroke="white" stroke-width="4" stroke-linecap="round" stroke-linejoin="round"/>
<path d="M3.03125 48.5C3.03125 54.1276 5.26678 59.5245 9.24608 63.5039C13.2254 67.4833 18.6224 69.7187 24.25 69.7187C29.8776 69.7187 35.2746 67.4833 39.2539 63.5039C43.2333 59.5245 45.4687 54.1276 45.4687 48.5C45.4687 42.8724 43.2333 37.4754 39.2539 33.4961C35.2746 29.5168 29.8776 27.2812 24.25 27.2812C18.6224 27.2812 13.2254 29.5168 9.24608 33.4961C5.26678 37.4754 3.03125 42.8724 3.03125 48.5Z" stroke="white" stroke-width="4" stroke-linecap="round" stroke-linejoin="round"/>
<path d="M55.2698 93.9692C49.2465 86.2311 40.5476 81.025 30.8816 79.3736C21.2157 77.7225 11.2817 79.7454 3.03125 85.0452" stroke="white" stroke-width="4" stroke-linecap="round" stroke-linejoin="round"/>
</g>
</svg>
