<svg width="181" height="33" viewBox="0 0 181 33" fill="none" xmlns="http://www.w3.org/2000/svg">
<path fill-rule="evenodd" clip-rule="evenodd" d="M12.3897 0.0446142C12.3284 -0.0148715 12.2293 -0.0148713 12.1679 0.0446142L0.0465037 11.7979C0.0167645 11.8267 2.38569e-06 11.866 0 11.9069V31.8911C2.2527e-05 31.976 0.0704936 32.0448 0.157421 32.0448H24.4002C24.4872 32.0448 24.5576 31.976 24.5577 31.8911V11.9069C24.5577 11.866 24.5409 11.8267 24.5112 11.7979L12.3897 0.0446142ZM1.4955 25.9464C1.4955 25.7617 1.52842 25.5779 1.60006 25.4069C3.23017 21.5168 7.39631 18.7504 12.2788 18.7504C16.8017 18.7504 21.2008 21.2729 22.9547 25.4035C23.0282 25.5765 23.0622 25.7631 23.0622 25.9504V30.5815C23.0622 30.6664 22.9917 30.7351 22.9047 30.7351H19.7423H4.8154H1.65292C1.56598 30.7351 1.4955 30.6664 1.4955 30.5815V25.9464ZM12.1681 2.11427C12.2294 2.05501 12.3282 2.05501 12.3896 2.11427L23.0154 12.3808C23.0453 12.4096 23.0621 12.449 23.0621 12.49V22.6251C20.7533 19.4575 16.786 17.3672 12.2788 17.3672C7.77165 17.3672 3.80424 19.4575 1.4955 22.6252V12.49C1.49551 12.449 1.5123 12.4096 1.54216 12.3808L12.1681 2.11427Z" fill="#2B2824"/>
<path fill-rule="evenodd" clip-rule="evenodd" d="M1.4955 25.9464C1.4955 25.7617 1.52842 25.5779 1.60006 25.4069C3.23017 21.5168 7.39631 18.7504 12.2788 18.7504C16.8017 18.7504 21.2008 21.2729 22.9547 25.4035C23.0282 25.5765 23.0622 25.7631 23.0622 25.9504V30.5815C23.0622 30.6664 22.9917 30.7351 22.9047 30.7351H19.7423C19.8546 30.216 19.9137 29.6772 19.9137 29.1246C19.9137 24.923 16.4955 21.5169 12.2788 21.5169C8.06218 21.5169 4.64392 24.923 4.64392 29.1246C4.64392 29.6772 4.70311 30.216 4.8154 30.7351H1.65292C1.56598 30.7351 1.4955 30.6664 1.4955 30.5815V25.9464Z" fill="#C9A980"/>
<path d="M179.114 28.6902C177.858 28.6902 176.907 28.3677 176.262 27.7226C175.617 27.0775 175.294 26.1693 175.294 24.9979V16.5183H172.85V14.9396H175.294V11.5273H177.204V14.9396H180.54V16.5183H177.204V24.9979C177.204 26.356 177.934 27.0351 179.394 27.0351C179.767 27.0351 180.124 27.0011 180.463 26.9332C180.82 26.8653 180.998 26.8313 180.998 26.8313V28.4611C180.998 28.4611 180.803 28.495 180.412 28.5629C180.039 28.6478 179.606 28.6902 179.114 28.6902Z" fill="#2B2824"/>
<path d="M169.639 28.4358L169.664 9.08301H171.548V28.4358H169.639Z" fill="#2B2824"/>
<path d="M161.323 28.6901C159.982 28.6901 158.913 28.2572 158.115 27.3915C157.317 26.5257 156.918 25.3204 156.918 23.7755V14.9395H158.828V23.6991C158.828 24.7517 159.091 25.5665 159.617 26.1437C160.143 26.7209 160.865 27.0095 161.782 27.0095C162.681 27.0095 163.403 26.7718 163.946 26.2965C164.489 25.8042 164.88 25.193 165.117 24.4631C165.372 23.7161 165.499 22.9437 165.499 22.1458V14.9395H167.409V28.4355H165.499V26.2201H165.372C165.253 26.4578 165.041 26.7803 164.735 27.1877C164.43 27.5782 164.006 27.9262 163.462 28.2318C162.919 28.5374 162.206 28.6901 161.323 28.6901Z" fill="#2B2824"/>
<path d="M150.726 28.6899C149.708 28.6899 148.867 28.5456 148.205 28.257C147.56 27.9684 147.042 27.6119 146.652 27.1875C146.278 26.7631 146.007 26.3387 145.837 25.9143C145.667 25.4899 145.557 25.1334 145.506 24.8448C145.455 24.5562 145.43 24.4119 145.43 24.4119H147.39C147.39 24.4119 147.416 24.5477 147.467 24.8193C147.518 25.074 147.645 25.3795 147.849 25.736C148.069 26.0756 148.409 26.3811 148.867 26.6528C149.326 26.9074 149.954 27.0347 150.752 27.0347C151.617 27.0347 152.305 26.814 152.814 26.3727C153.324 25.9313 153.578 25.388 153.578 24.7429C153.578 24.1318 153.366 23.6565 152.942 23.3169C152.534 22.9774 151.982 22.7313 151.286 22.5785L149.504 22.1711C148.825 22.0013 148.205 21.7721 147.645 21.4835C147.085 21.1949 146.635 20.813 146.295 20.3376C145.956 19.8453 145.786 19.2427 145.786 18.5297C145.786 17.3923 146.202 16.4671 147.034 15.7541C147.866 15.0411 148.952 14.6846 150.293 14.6846C151.193 14.6846 151.932 14.8204 152.509 15.092C153.103 15.3466 153.57 15.6692 153.909 16.0596C154.266 16.4501 154.52 16.8405 154.673 17.231C154.843 17.6045 154.953 17.927 155.004 18.1986C155.055 18.4533 155.081 18.5806 155.081 18.5806H153.222C153.222 18.5806 153.188 18.4703 153.12 18.2496C153.069 18.0119 152.95 17.7488 152.763 17.4602C152.594 17.1546 152.305 16.8915 151.898 16.6708C151.507 16.4331 150.972 16.3143 150.293 16.3143C149.411 16.3143 148.749 16.5265 148.307 16.9509C147.883 17.3753 147.671 17.8591 147.671 18.4023C147.671 18.9286 147.857 19.3445 148.231 19.6501C148.621 19.9557 149.147 20.1848 149.81 20.3376L151.617 20.7705C152.755 21.0421 153.68 21.492 154.393 22.1201C155.106 22.7313 155.463 23.5801 155.463 24.6665C155.463 25.3965 155.267 26.0671 154.877 26.6782C154.503 27.2894 153.96 27.7817 153.247 28.1551C152.551 28.5116 151.711 28.6899 150.726 28.6899Z" fill="#2B2824"/>
<path d="M133.377 28.4353V14.9392H135.287V17.1801H135.414C135.533 16.9254 135.745 16.6029 136.051 16.2124C136.356 15.805 136.781 15.4485 137.324 15.1429C137.867 14.8374 138.555 14.6846 139.387 14.6846C140.388 14.6846 141.237 14.9137 141.933 15.3721C142.629 15.8305 143.155 16.4501 143.512 17.231C143.885 18.0119 144.072 18.8947 144.072 19.8793V28.4353H142.188V19.9811C142.188 18.9456 141.907 18.0883 141.347 17.4092C140.804 16.7132 139.998 16.3652 138.928 16.3652C138.079 16.3652 137.383 16.5859 136.84 17.0273C136.314 17.4687 135.923 18.0374 135.669 18.7334C135.414 19.4294 135.287 20.1424 135.287 20.8724V28.4353H133.377Z" fill="#2B2824"/>
<path d="M125.157 28.6899C124.088 28.6899 123.146 28.4947 122.331 28.1042C121.533 27.7138 120.854 27.1875 120.294 26.5254C119.751 25.8634 119.343 25.1164 119.071 24.2846C118.8 23.4358 118.664 22.57 118.664 21.6872C118.664 20.7875 118.8 19.9217 119.071 19.0899C119.343 18.2581 119.751 17.5111 120.294 16.849C120.854 16.187 121.533 15.6607 122.331 15.2702C123.146 14.8798 124.088 14.6846 125.157 14.6846C126.227 14.6846 127.169 14.8798 127.984 15.2702C128.799 15.6607 129.478 16.187 130.021 16.849C130.564 17.5111 130.972 18.2581 131.243 19.0899C131.532 19.9217 131.676 20.7875 131.676 21.6872C131.676 22.57 131.532 23.4358 131.243 24.2846C130.972 25.1164 130.564 25.8634 130.021 26.5254C129.478 27.1875 128.799 27.7138 127.984 28.1042C127.169 28.4947 126.227 28.6899 125.157 28.6899ZM125.157 26.9838C126.159 26.9838 126.999 26.7291 127.678 26.2199C128.357 25.7106 128.867 25.057 129.206 24.2591C129.563 23.4443 129.741 22.587 129.741 21.6872C129.741 20.7875 129.563 19.9387 129.206 19.1408C128.867 18.326 128.357 17.6639 127.678 17.1546C126.999 16.6453 126.159 16.3907 125.157 16.3907C124.156 16.3907 123.316 16.6453 122.636 17.1546C121.957 17.6639 121.448 18.326 121.109 19.1408C120.769 19.9387 120.599 20.7875 120.599 21.6872C120.599 22.587 120.769 23.4443 121.109 24.2591C121.448 25.057 121.957 25.7106 122.636 26.2199C123.316 26.7291 124.156 26.9838 125.157 26.9838Z" fill="#2B2824"/>
<path d="M109.561 28.6907C108.101 28.6907 106.819 28.4191 105.715 27.8758C104.612 27.3156 103.695 26.5772 102.965 25.6605C102.235 24.7268 101.684 23.6912 101.31 22.5538C100.954 21.3994 100.775 20.2196 100.775 19.0143C100.775 17.809 100.954 16.6291 101.31 15.4748C101.684 14.3204 102.235 13.2848 102.965 12.3681C103.695 11.4344 104.612 10.696 105.715 10.1527C106.819 9.60951 108.101 9.33789 109.561 9.33789C110.749 9.33789 111.767 9.49068 112.616 9.79625C113.482 10.1018 114.204 10.5008 114.781 10.9931C115.358 11.4854 115.825 12.0031 116.181 12.5464C116.538 13.0896 116.801 13.6074 116.971 14.0997C117.157 14.592 117.276 14.9909 117.327 15.2965C117.395 15.6021 117.429 15.7549 117.429 15.7549H115.443C115.443 15.7549 115.409 15.6021 115.341 15.2965C115.273 14.9909 115.129 14.609 114.908 14.1506C114.687 13.6923 114.356 13.2339 113.915 12.7756C113.491 12.3172 112.922 11.9352 112.209 11.6297C111.513 11.3241 110.63 11.1713 109.561 11.1713C108.44 11.1713 107.456 11.392 106.607 11.8334C105.758 12.2748 105.045 12.8774 104.468 13.6413C103.907 14.3883 103.483 15.2286 103.194 16.1623C102.906 17.079 102.762 18.0297 102.762 19.0143C102.762 19.9819 102.906 20.9326 103.194 21.8663C103.483 22.8 103.907 23.6488 104.468 24.4127C105.045 25.1597 105.758 25.7538 106.607 26.1952C107.456 26.6366 108.44 26.8573 109.561 26.8573C110.63 26.8573 111.513 26.7045 112.209 26.3989C112.922 26.0934 113.491 25.7114 113.915 25.253C114.356 24.7947 114.687 24.3363 114.908 23.878C115.129 23.4196 115.273 23.0376 115.341 22.7321C115.409 22.4095 115.443 22.2483 115.443 22.2483H117.429C117.429 22.2483 117.395 22.4095 117.327 22.7321C117.276 23.0376 117.157 23.4366 116.971 23.9289C116.801 24.4042 116.538 24.922 116.181 25.4822C115.825 26.0254 115.358 26.5432 114.781 27.0355C114.204 27.5278 113.482 27.9268 112.616 28.2323C111.767 28.5379 110.749 28.6907 109.561 28.6907Z" fill="#2B2824"/>
<path d="M88.4942 14.6846C89.4278 14.6846 90.2003 14.8458 90.8114 15.1684C91.4225 15.474 91.9064 15.8389 92.2629 16.2634C92.6363 16.6878 92.908 17.0527 93.0777 17.3583H93.2305V14.9392H95.1149V28.4353H93.2305V26.0162H93.0777C92.908 26.3387 92.6363 26.7122 92.2629 27.1366C91.9064 27.544 91.4225 27.909 90.8114 28.2315C90.2003 28.5371 89.4278 28.6899 88.4942 28.6899C87.4756 28.6899 86.5843 28.4947 85.8204 28.1042C85.0565 27.6968 84.4199 27.162 83.9106 26.5C83.4013 25.8209 83.0193 25.0655 82.7647 24.2337C82.527 23.4018 82.4082 22.553 82.4082 21.6872C82.4082 20.8214 82.527 19.9726 82.7647 19.1408C83.0193 18.309 83.4013 17.562 83.9106 16.9C84.4199 16.2209 85.0565 15.6862 85.8204 15.2957C86.5843 14.8883 87.4756 14.6846 88.4942 14.6846ZM88.7743 16.3397C87.7727 16.3397 86.9408 16.6029 86.2788 17.1291C85.6167 17.6554 85.1244 18.326 84.8018 19.1408C84.4793 19.9557 84.318 20.8045 84.318 21.6872C84.318 22.57 84.4793 23.4188 84.8018 24.2337C85.1244 25.0485 85.6167 25.7191 86.2788 26.2453C86.9408 26.7716 87.7727 27.0347 88.7743 27.0347C89.7589 27.0347 90.5737 26.7716 91.2188 26.2453C91.8809 25.7191 92.3732 25.0485 92.6958 24.2337C93.0353 23.4188 93.205 22.57 93.205 21.6872C93.205 20.8045 93.0353 19.9557 92.6958 19.1408C92.3732 18.326 91.8809 17.6554 91.2188 17.1291C90.5737 16.6029 89.7589 16.3397 88.7743 16.3397Z" fill="#2B2824"/>
<path d="M79.4551 12.3428C79.0646 12.3428 78.7421 12.207 78.4874 11.9353C78.2328 11.6637 78.1055 11.3497 78.1055 10.9932C78.1055 10.6197 78.2328 10.3056 78.4874 10.051C78.7421 9.77936 79.0646 9.64355 79.4551 9.64355C79.8285 9.64355 80.1426 9.77936 80.3972 10.051C80.6689 10.3056 80.8047 10.6197 80.8047 10.9932C80.8047 11.3666 80.6689 11.6892 80.3972 11.9608C80.1426 12.2154 79.8285 12.3428 79.4551 12.3428ZM78.5129 28.4362V14.9401H80.4227V28.4362H78.5129Z" fill="#2B2824"/>
<path d="M69.7188 28.4353V14.9392H71.6286V16.6962H71.7304C72.002 16.153 72.418 15.6862 72.9782 15.2957C73.5384 14.8883 74.3193 14.6846 75.3209 14.6846C75.6434 14.6846 75.9235 14.7015 76.1612 14.7355C76.4158 14.7695 76.5432 14.7864 76.5432 14.7864V16.6199C76.5432 16.6199 76.4074 16.6029 76.1357 16.5689C75.8641 16.535 75.5755 16.518 75.27 16.518C74.5739 16.518 73.9458 16.6623 73.3856 16.9509C72.8424 17.2225 72.4095 17.6978 72.0869 18.3769C71.7814 19.039 71.6286 19.9472 71.6286 21.1016V28.4353H69.7188Z" fill="#2B2824"/>
<path d="M66.2798 28.6902C65.0236 28.6902 64.0729 28.3677 63.4278 27.7226C62.7827 27.0775 62.4602 26.1693 62.4602 24.9979V16.5183H60.0156V14.9396H62.4602V11.5273H64.37V14.9396H67.7058V16.5183H64.37V24.9979C64.37 26.356 65.1 27.0351 66.5599 27.0351C66.9334 27.0351 67.2899 27.0011 67.6294 26.9332C67.9859 26.8653 68.1642 26.8313 68.1642 26.8313V28.4611C68.1642 28.4611 67.969 28.495 67.5785 28.5629C67.205 28.6478 66.7721 28.6902 66.2798 28.6902Z" fill="#2B2824"/>
<path d="M52.6543 14.6846C53.588 14.6846 54.3604 14.8458 54.9716 15.1684C55.5827 15.474 56.0665 15.8389 56.423 16.2634C56.7965 16.6878 57.0681 17.0527 57.2379 17.3583H57.3907V14.9392H59.275V28.4353H57.3907V26.0162H57.2379C57.0681 26.3387 56.7965 26.7122 56.423 27.1366C56.0665 27.544 55.5827 27.909 54.9716 28.2315C54.3604 28.5371 53.588 28.6899 52.6543 28.6899C51.6357 28.6899 50.7445 28.4947 49.9806 28.1042C49.2166 27.6968 48.58 27.162 48.0707 26.5C47.5615 25.8209 47.1795 25.0655 46.9249 24.2337C46.6872 23.4018 46.5684 22.553 46.5684 21.6872C46.5684 20.8214 46.6872 19.9726 46.9249 19.1408C47.1795 18.309 47.5615 17.562 48.0707 16.9C48.58 16.2209 49.2166 15.6862 49.9806 15.2957C50.7445 14.8883 51.6357 14.6846 52.6543 14.6846ZM52.9344 16.3397C51.9328 16.3397 51.101 16.6029 50.4389 17.1291C49.7769 17.6554 49.2845 18.326 48.962 19.1408C48.6394 19.9557 48.4782 20.8045 48.4782 21.6872C48.4782 22.57 48.6394 23.4188 48.962 24.2337C49.2845 25.0485 49.7769 25.7191 50.4389 26.2453C51.101 26.7716 51.9328 27.0347 52.9344 27.0347C53.919 27.0347 54.7339 26.7716 55.379 26.2453C56.0411 25.7191 56.5334 25.0485 56.8559 24.2337C57.1954 23.4188 57.3652 22.57 57.3652 21.6872C57.3652 20.8045 57.1954 19.9557 56.8559 19.1408C56.5334 18.326 56.0411 17.6554 55.379 17.1291C54.7339 16.6029 53.919 16.3397 52.9344 16.3397Z" fill="#2B2824"/>
<path d="M37.7752 28.4353L31.0781 9.5918H33.1407L38.9975 26.169L44.8288 9.5918H46.9169L40.1943 28.4353H37.7752Z" fill="#2B2824"/>
</svg>
