<svg width="692" height="904" viewBox="0 0 692 904" fill="none" xmlns="http://www.w3.org/2000/svg">
<g opacity="0.03">
<path fill-rule="evenodd" clip-rule="evenodd" d="M349.125 1.25859C347.396 -0.419533 344.604 -0.419527 342.875 1.25859L1.31041 332.825C0.4724 333.639 6.72253e-05 334.747 0 335.901V899.666C0.000634777 902.059 1.98641 904 4.4359 904H687.564C690.014 904 691.999 902.059 692 899.666V335.901C692 334.747 691.528 333.639 690.69 332.825L349.125 1.25859ZM42.141 731.963C42.141 726.752 43.0687 721.567 45.0875 716.744C91.0216 606.999 208.417 528.96 346 528.96C473.447 528.96 597.409 600.121 646.831 716.646C648.901 721.528 649.859 726.791 649.859 732.075V862.722C649.859 865.115 647.873 867.055 645.423 867.055H556.309H135.691H46.5769C44.127 867.055 42.141 865.115 42.141 862.722V731.963ZM342.879 59.6448C344.607 57.9731 347.393 57.9731 349.121 59.6448L648.542 349.268C649.383 350.082 649.857 351.192 649.857 352.349V638.267C584.8 548.907 473.005 489.938 346 489.938C218.994 489.938 107.198 548.908 42.141 638.27V352.349C42.1413 351.192 42.6145 350.082 43.4558 349.268L342.879 59.6448Z" fill="white"/>
</g>
</svg>
