<svg width="16" height="16" viewBox="0 0 16 16" fill="none" xmlns="http://www.w3.org/2000/svg">
<g clip-path="url(#clip0_376_3966)">
<path d="M4.41602 1.19922C5.93556 0.398448 7.67997 0.129521 9.37012 0.435547C11.0601 0.741643 12.599 1.60507 13.7412 2.8877C14.8834 4.17039 15.563 5.79862 15.6719 7.5127C15.7807 9.22675 15.3125 10.9278 14.3418 12.3447C14.1857 12.5725 13.8743 12.6307 13.6465 12.4746C13.419 12.3185 13.3609 12.0079 13.5166 11.7803C14.3611 10.5477 14.7685 9.06736 14.6738 7.57617C14.5791 6.085 13.9878 4.6686 12.9941 3.55273C12.0004 2.43686 10.6617 1.68614 9.19141 1.41992C7.72112 1.15371 6.20371 1.38738 4.88184 2.08398C3.56022 2.78057 2.50994 3.89963 1.89844 5.2627C1.2869 6.62596 1.14913 8.15501 1.50781 9.60547C1.86654 11.056 2.70141 12.3445 3.87793 13.2656C5.05433 14.1865 6.50503 14.6873 7.99902 14.6875C10.2555 14.6875 11.0388 13.9505 11.3105 13.373C11.4261 13.1275 11.4669 12.8736 11.4678 12.6465C11.2454 12.7814 10.9981 12.8736 10.7373 12.9131C10.2942 12.9802 9.8413 12.8961 9.45215 12.6738C9.44566 12.6701 9.43894 12.6661 9.43262 12.6621C6.97578 11.1074 4.89449 9.0262 3.33984 6.56934C3.33603 6.56329 3.33265 6.55698 3.3291 6.55078C3.10653 6.16149 3.02162 5.708 3.08887 5.26465C3.15615 4.82125 3.37115 4.4132 3.69922 4.10742L4.27734 3.53027V3.53125C4.53623 3.25453 4.89145 3.08742 5.27051 3.06738C5.60964 3.0495 5.94318 3.14977 6.21484 3.34863L6.32715 3.43945L6.34668 3.45801L7.31543 4.4248L7.33496 4.44629C7.59317 4.73541 7.72647 5.11485 7.70605 5.50195C7.68601 5.88112 7.51892 6.23602 7.24219 6.49512L7.24316 6.49609L7.20605 6.53223C7.89502 7.349 8.65174 8.10606 9.46777 8.7959L9.50586 8.75879C9.76497 8.48249 10.1211 8.31669 10.5 8.29688C10.8868 8.27677 11.2659 8.40983 11.5547 8.66797C11.5616 8.67416 11.5686 8.68093 11.5752 8.6875L12.543 9.65527C12.5494 9.66173 12.5564 9.66898 12.5625 9.67578C12.8212 9.96467 12.9547 10.3442 12.9346 10.7314C12.9147 11.1108 12.7476 11.4664 12.4707 11.7256L12.4717 11.7266L12.3506 11.8467C12.3994 11.9969 12.4383 12.1754 12.457 12.3711C12.4959 12.7777 12.4546 13.2914 12.2158 13.7988C11.7157 14.8619 10.4674 15.6875 7.99902 15.6875C6.28147 15.6873 4.61314 15.1115 3.26074 14.0527C1.90849 12.9939 0.949442 11.5129 0.537109 9.8457C0.124741 8.17831 0.283323 6.42069 0.986328 4.85352C1.68934 3.28648 2.89659 1.99995 4.41602 1.19922ZM5.32324 4.06641C5.19986 4.07295 5.08384 4.12807 5.00098 4.21973C4.99537 4.22591 4.9893 4.23238 4.9834 4.23828L4.39355 4.82715C4.38948 4.83121 4.38507 4.83494 4.38086 4.83887C4.21781 4.99084 4.11068 5.19371 4.07715 5.41406C4.04384 5.63355 4.08674 5.85776 4.19629 6.05078C5.66758 8.37059 7.63315 10.3366 9.95312 11.8076C10.1457 11.9163 10.3692 11.9579 10.5879 11.9248C10.8082 11.8914 11.011 11.7849 11.1631 11.6221L11.1748 11.6094L11.7646 11.0195L11.7832 11.002C11.8747 10.9189 11.9301 10.8031 11.9365 10.6797C11.9429 10.5573 11.9004 10.4375 11.8193 10.3457L10.8848 9.41113C10.7931 9.33061 10.6737 9.28855 10.5518 9.29492C10.4283 9.30138 10.3125 9.35669 10.2295 9.44824L9.85254 9.8252C9.67185 10.0052 9.38418 10.0204 9.18555 9.86035C8.06445 8.957 7.04377 7.93553 6.1416 6.81348C5.98146 6.6143 5.99768 6.32591 6.17871 6.14551L6.53711 5.78809L6.55469 5.77148C6.6462 5.68842 6.70148 5.57264 6.70801 5.44922C6.71452 5.32566 6.67129 5.20458 6.58887 5.1123H6.58789L5.65625 4.18164C5.56462 4.10123 5.44511 4.05998 5.32324 4.06641Z" fill="#2B2824" fill-opacity="0.6"/>
</g>
<defs>
<clipPath id="clip0_376_3966">
<rect width="16" height="16" fill="white"/>
</clipPath>
</defs>
</svg>
