<svg width="16" height="16" viewBox="0 0 16 16" fill="none" xmlns="http://www.w3.org/2000/svg">
<g clip-path="url(#clip0_556_762)">
<path d="M7.87516 0C8.2502 1.63933e-08 8.55406 0.303859 8.55406 0.678893V7.31862H15.3211C15.6961 7.31862 16 7.62248 16 7.99751C16 8.37255 15.6961 8.67641 15.3211 8.67641H8.55406V15.3211C8.55406 15.6961 8.2502 16 7.87516 16C7.50013 16 7.19627 15.6961 7.19627 15.3211V8.67641H0.678893C0.303859 8.67641 0 8.37255 0 7.99751C0 7.62248 0.303859 7.31862 0.678893 7.31862H7.19627V0.678893C7.19627 0.303859 7.50013 -3.64104e-10 7.87516 0Z" fill="#5E6F5B" fill-opacity="0.6"/>
</g>
<defs>
<clipPath id="clip0_556_762">
<rect width="16" height="16" fill="white"/>
</clipPath>
</defs>
</svg>
