<svg width="16" height="16" viewBox="0 0 16 16" fill="none" xmlns="http://www.w3.org/2000/svg">
<g clip-path="url(#clip0_376_3959)">
<path d="M8 0.3125C10.0389 0.3125 11.9939 1.12277 13.4355 2.56445C14.8772 4.00614 15.6875 5.96115 15.6875 8L15.6777 8.38086C15.5835 10.281 14.7872 12.0839 13.4355 13.4355C12.0839 14.7872 10.281 15.5835 8.38086 15.6777L8 15.6875C5.96115 15.6875 4.00614 14.8772 2.56445 13.4355C1.2128 12.0839 0.416452 10.281 0.322266 8.38086L0.3125 8C0.3125 5.96115 1.12277 4.00614 2.56445 2.56445C4.00614 1.12277 5.96115 0.3125 8 0.3125ZM8 1.3125C6.22636 1.3125 4.52563 2.01733 3.27148 3.27148C2.01733 4.52563 1.3125 6.22636 1.3125 8L1.32031 8.33203C1.4024 9.98479 2.09581 11.5528 3.27148 12.7285C4.52563 13.9827 6.22636 14.6875 8 14.6875L8.33203 14.6797C9.98479 14.5976 11.5528 13.9042 12.7285 12.7285C13.9827 11.4744 14.6875 9.77363 14.6875 8L14.6797 7.66797C14.5976 6.01521 13.9042 4.44716 12.7285 3.27148C11.4744 2.01733 9.77363 1.3125 8 1.3125ZM8.29102 3.12988C9.7286 3.18058 10.8427 3.60706 11.6572 4.26074C12.5231 4.9558 13.0178 5.88206 13.2148 6.80176C13.4103 7.71441 13.3186 8.64768 12.9785 9.37402C12.6378 10.1016 12.0044 10.6875 11.124 10.6875C10.5336 10.6875 10.1072 10.4797 9.875 10.0928C9.85229 10.0549 9.83301 10.0161 9.81543 9.97754C9.38602 10.3718 8.84305 10.6175 8.26562 10.6748L8 10.6875C7.28723 10.6875 6.60361 10.4044 6.09961 9.90039C5.59561 9.39639 5.3125 8.71277 5.3125 8C5.3125 7.28723 5.59561 6.60361 6.09961 6.09961C6.60361 5.59561 7.28723 5.3125 8 5.3125C8.63242 5.3125 9.24123 5.53617 9.72266 5.93848C9.79661 5.75478 9.97637 5.62504 10.1865 5.625C10.4627 5.625 10.6865 5.84886 10.6865 6.125V7.97949C10.6866 7.98633 10.6875 7.99316 10.6875 8L10.6865 8.01953V9.25C10.6865 9.42468 10.6968 9.5198 10.7324 9.5791C10.7423 9.59551 10.7578 9.61501 10.7988 9.63477C10.8459 9.65745 10.9433 9.68749 11.124 9.6875C11.4935 9.6875 11.8368 9.45293 12.0723 8.9502C12.3083 8.44618 12.3923 7.73854 12.2363 7.01074C12.0818 6.29011 11.6982 5.57532 11.0312 5.04004C10.4084 4.54018 9.50933 4.17384 8.25488 4.12988L7.99902 4.125C7.40478 4.12515 6.81808 4.26151 6.28516 4.52441C5.75226 4.78734 5.28749 5.17013 4.92578 5.6416C4.56405 6.11312 4.31514 6.66127 4.19922 7.24414C4.0833 7.82703 4.10303 8.42887 4.25684 9.00293C4.41065 9.57698 4.6951 10.1078 5.08691 10.5547C5.47871 11.0014 5.96764 11.3526 6.5166 11.5801C7.06563 11.8076 7.6599 11.9059 8.25293 11.8672C8.84584 11.8284 9.42187 11.6534 9.93652 11.3564C10.1757 11.2185 10.4821 11.3 10.6201 11.5391C10.7581 11.7782 10.6757 12.0846 10.4365 12.2227C9.78907 12.5962 9.06426 12.8154 8.31836 12.8643C7.57229 12.913 6.82451 12.7901 6.13379 12.5039C5.4431 12.2177 4.82788 11.776 4.33496 11.2139C3.84203 10.6517 3.48452 9.98391 3.29102 9.26172C3.09751 8.53952 3.07291 7.78214 3.21875 7.04883C3.36461 6.31563 3.6768 5.62536 4.13184 5.03223C4.58686 4.43916 5.17242 3.95869 5.84277 3.62793C6.51329 3.29714 7.25135 3.12515 7.99902 3.125L8.29102 3.12988ZM8 6.3125C7.55245 6.3125 7.12311 6.49017 6.80664 6.80664C6.49017 7.12311 6.3125 7.55245 6.3125 8L6.32031 8.16699C6.3587 8.55324 6.52977 8.91649 6.80664 9.19336C7.12311 9.50983 7.55245 9.6875 8 9.6875L8.16699 9.67969C8.55324 9.6413 8.91649 9.47023 9.19336 9.19336C9.50499 8.88173 9.68118 8.46065 9.68652 8.02051V7.97852L9.67969 7.83301C9.6413 7.44676 9.47023 7.08351 9.19336 6.80664C8.87689 6.49017 8.44755 6.3125 8 6.3125Z" fill="#2B2824" fill-opacity="0.6"/>
</g>
<defs>
<clipPath id="clip0_376_3959">
<rect width="16" height="16" fill="white"/>
</clipPath>
</defs>
</svg>
