<svg width="181" height="33" viewBox="0 0 181 33" fill="none" xmlns="http://www.w3.org/2000/svg">
<path fill-rule="evenodd" clip-rule="evenodd" d="M12.3897 0.0446142C12.3284 -0.0148715 12.2293 -0.0148713 12.1679 0.0446142L0.0465037 11.7979C0.0167645 11.8267 2.38569e-06 11.866 0 11.9069V31.8911C2.2527e-05 31.976 0.0704936 32.0448 0.157421 32.0448H24.4002C24.4872 32.0448 24.5576 31.976 24.5577 31.8911V11.9069C24.5577 11.866 24.5409 11.8267 24.5112 11.7979L12.3897 0.0446142ZM1.4955 25.9464C1.4955 25.7617 1.52842 25.5779 1.60006 25.4069C3.23017 21.5168 7.39631 18.7504 12.2788 18.7504C16.8017 18.7504 21.2008 21.2729 22.9547 25.4035C23.0282 25.5765 23.0622 25.7631 23.0622 25.9504V30.5815C23.0622 30.6664 22.9917 30.7351 22.9047 30.7351H19.7423H4.8154H1.65292C1.56598 30.7351 1.4955 30.6664 1.4955 30.5815V25.9464ZM12.1681 2.11427C12.2294 2.05501 12.3282 2.05501 12.3896 2.11427L23.0154 12.3808C23.0453 12.4096 23.0621 12.449 23.0621 12.49V22.6251C20.7533 19.4575 16.786 17.3672 12.2788 17.3672C7.77165 17.3672 3.80424 19.4575 1.4955 22.6252V12.49C1.49551 12.449 1.5123 12.4096 1.54216 12.3808L12.1681 2.11427Z" fill="white"/>
<path fill-rule="evenodd" clip-rule="evenodd" d="M1.4955 25.9464C1.4955 25.7617 1.52842 25.5779 1.60006 25.4069C3.23017 21.5168 7.39631 18.7504 12.2788 18.7504C16.8017 18.7504 21.2008 21.2729 22.9547 25.4035C23.0282 25.5765 23.0622 25.7631 23.0622 25.9504V30.5815C23.0622 30.6664 22.9917 30.7351 22.9047 30.7351H19.7423C19.8546 30.216 19.9137 29.6772 19.9137 29.1246C19.9137 24.923 16.4955 21.5169 12.2788 21.5169C8.06218 21.5169 4.64392 24.923 4.64392 29.1246C4.64392 29.6772 4.70311 30.216 4.8154 30.7351H1.65292C1.56598 30.7351 1.4955 30.6664 1.4955 30.5815V25.9464Z" fill="#C9A980"/>
<path d="M179.116 28.6905C177.86 28.6905 176.909 28.3679 176.264 27.7228C175.619 27.0777 175.296 26.1695 175.296 24.9982V16.5186H172.852V14.9398H175.296V11.5276H177.206V14.9398H180.542V16.5186H177.206V24.9982C177.206 26.3563 177.936 27.0353 179.396 27.0353C179.769 27.0353 180.126 27.0014 180.465 26.9334C180.822 26.8655 181 26.8316 181 26.8316V28.4613C181 28.4613 180.805 28.4953 180.414 28.5632C180.041 28.648 179.608 28.6905 179.116 28.6905Z" fill="white"/>
<path d="M169.639 28.436L169.664 9.08319H171.548V28.436H169.639Z" fill="white"/>
<path d="M161.324 28.6907C159.983 28.6907 158.914 28.2578 158.116 27.392C157.318 26.5262 156.919 25.3209 156.919 23.7761V14.94H158.829V23.6997C158.829 24.7522 159.092 25.5671 159.618 26.1443C160.144 26.7215 160.866 27.01 161.783 27.01C162.682 27.01 163.404 26.7724 163.947 26.297C164.49 25.8047 164.881 25.1936 165.118 24.4636C165.373 23.7167 165.5 22.9443 165.5 22.1464V14.94H167.41V28.436H165.5V26.2207H165.373C165.254 26.4583 165.042 26.7809 164.736 27.1883C164.431 27.5787 164.006 27.9268 163.463 28.2323C162.92 28.5379 162.207 28.6907 161.324 28.6907Z" fill="white"/>
<path d="M150.727 28.6905C149.709 28.6905 148.868 28.5462 148.206 28.2576C147.561 27.969 147.043 27.6125 146.653 27.1881C146.279 26.7637 146.008 26.3393 145.838 25.9149C145.668 25.4905 145.558 25.134 145.507 24.8454C145.456 24.5568 145.431 24.4125 145.431 24.4125H147.391C147.391 24.4125 147.417 24.5483 147.468 24.8199C147.519 25.0746 147.646 25.3802 147.85 25.7367C148.07 26.0762 148.41 26.3817 148.868 26.6534C149.327 26.908 149.955 27.0353 150.753 27.0353C151.618 27.0353 152.306 26.8146 152.815 26.3733C153.325 25.9319 153.579 25.3886 153.579 24.7436C153.579 24.1324 153.367 23.6571 152.943 23.3176C152.535 22.978 151.983 22.7319 151.287 22.5791L149.505 22.1717C148.826 22.0019 148.206 21.7727 147.646 21.4841C147.086 21.1955 146.636 20.8136 146.296 20.3382C145.957 19.8459 145.787 19.2433 145.787 18.5303C145.787 17.3929 146.203 16.4677 147.035 15.7547C147.867 15.0417 148.953 14.6852 150.294 14.6852C151.194 14.6852 151.933 14.821 152.51 15.0926C153.104 15.3473 153.571 15.6698 153.91 16.0602C154.267 16.4507 154.521 16.8412 154.674 17.2316C154.844 17.6051 154.954 17.9276 155.005 18.1992C155.056 18.4539 155.082 18.5812 155.082 18.5812H153.223C153.223 18.5812 153.189 18.4709 153.121 18.2502C153.07 18.0125 152.951 17.7494 152.764 17.4608C152.595 17.1552 152.306 16.8921 151.899 16.6714C151.508 16.4337 150.973 16.3149 150.294 16.3149C149.412 16.3149 148.75 16.5271 148.308 16.9515C147.884 17.3759 147.672 17.8597 147.672 18.403C147.672 18.9292 147.858 19.3451 148.232 19.6507C148.622 19.9563 149.148 20.1855 149.811 20.3382L151.618 20.7711C152.756 21.0427 153.681 21.4926 154.394 22.1207C155.107 22.7319 155.464 23.5807 155.464 24.6672C155.464 25.3971 155.268 26.0677 154.878 26.6788C154.504 27.29 153.961 27.7823 153.248 28.1558C152.552 28.5123 151.712 28.6905 150.727 28.6905Z" fill="white"/>
<path d="M133.378 28.4359V14.9398H135.288V17.1807H135.415C135.534 16.926 135.746 16.6035 136.052 16.213C136.357 15.8056 136.782 15.4491 137.325 15.1435C137.868 14.838 138.556 14.6852 139.387 14.6852C140.389 14.6852 141.238 14.9144 141.934 15.3727C142.63 15.8311 143.156 16.4507 143.513 17.2316C143.886 18.0125 144.073 18.8953 144.073 19.8799V28.4359H142.189V19.9817C142.189 18.9462 141.908 18.0889 141.348 17.4099C140.805 16.7138 139.999 16.3658 138.929 16.3658C138.08 16.3658 137.384 16.5865 136.841 17.0279C136.315 17.4693 135.924 18.038 135.67 18.734C135.415 19.43 135.288 20.143 135.288 20.873V28.4359H133.378Z" fill="white"/>
<path d="M125.159 28.6905C124.09 28.6905 123.148 28.4953 122.333 28.1048C121.535 27.7144 120.856 27.1881 120.296 26.526C119.752 25.864 119.345 25.117 119.073 24.2852C118.802 23.4364 118.666 22.5706 118.666 21.6878C118.666 20.7881 118.802 19.9223 119.073 19.0905C119.345 18.2587 119.752 17.5117 120.296 16.8496C120.856 16.1876 121.535 15.6613 122.333 15.2709C123.148 14.8804 124.09 14.6852 125.159 14.6852C126.229 14.6852 127.171 14.8804 127.986 15.2709C128.801 15.6613 129.48 16.1876 130.023 16.8496C130.566 17.5117 130.974 18.2587 131.245 19.0905C131.534 19.9223 131.678 20.7881 131.678 21.6878C131.678 22.5706 131.534 23.4364 131.245 24.2852C130.974 25.117 130.566 25.864 130.023 26.526C129.48 27.1881 128.801 27.7144 127.986 28.1048C127.171 28.4953 126.229 28.6905 125.159 28.6905ZM125.159 26.9844C126.161 26.9844 127.001 26.7298 127.68 26.2205C128.359 25.7112 128.869 25.0576 129.208 24.2597C129.565 23.4449 129.743 22.5876 129.743 21.6878C129.743 20.7881 129.565 19.9393 129.208 19.1414C128.869 18.3266 128.359 17.6645 127.68 17.1552C127.001 16.6459 126.161 16.3913 125.159 16.3913C124.158 16.3913 123.317 16.6459 122.638 17.1552C121.959 17.6645 121.45 18.3266 121.111 19.1414C120.771 19.9393 120.601 20.7881 120.601 21.6878C120.601 22.5876 120.771 23.4449 121.111 24.2597C121.45 25.0576 121.959 25.7112 122.638 26.2205C123.317 26.7298 124.158 26.9844 125.159 26.9844Z" fill="white"/>
<path d="M109.561 28.6905C108.101 28.6905 106.819 28.4188 105.715 27.8756C104.612 27.3154 103.695 26.5769 102.965 25.6602C102.235 24.7265 101.684 23.691 101.31 22.5536C100.954 21.3992 100.775 20.2194 100.775 19.0141C100.775 17.8087 100.954 16.6289 101.31 15.4745C101.684 14.3201 102.235 13.2846 102.965 12.3679C103.695 11.4342 104.612 10.6957 105.715 10.1525C106.819 9.60926 108.101 9.33765 109.561 9.33765C110.749 9.33765 111.767 9.49043 112.616 9.796C113.482 10.1016 114.204 10.5005 114.781 10.9928C115.358 11.4851 115.825 12.0029 116.181 12.5461C116.538 13.0894 116.801 13.6072 116.971 14.0995C117.157 14.5918 117.276 14.9907 117.327 15.2963C117.395 15.6018 117.429 15.7546 117.429 15.7546H115.443C115.443 15.7546 115.409 15.6018 115.341 15.2963C115.273 14.9907 115.129 14.6087 114.908 14.1504C114.687 13.692 114.356 13.2337 113.915 12.7753C113.491 12.317 112.922 11.935 112.209 11.6294C111.513 11.3239 110.63 11.1711 109.561 11.1711C108.44 11.1711 107.456 11.3918 106.607 11.8331C105.758 12.2745 105.045 12.8772 104.468 13.6411C103.907 14.3881 103.483 15.2284 103.194 16.1621C102.906 17.0788 102.762 18.0294 102.762 19.0141C102.762 19.9817 102.906 20.9324 103.194 21.866C103.483 22.7997 103.907 23.6485 104.468 24.4125C105.045 25.1594 105.758 25.7536 106.607 26.195C107.456 26.6363 108.44 26.857 109.561 26.857C110.63 26.857 111.513 26.7043 112.209 26.3987C112.922 26.0931 113.491 25.7111 113.915 25.2528C114.356 24.7944 114.687 24.3361 114.908 23.8777C115.129 23.4194 115.273 23.0374 115.341 22.7318C115.409 22.4093 115.443 22.248 115.443 22.248H117.429C117.429 22.248 117.395 22.4093 117.327 22.7318C117.276 23.0374 117.157 23.4363 116.971 23.9286C116.801 24.404 116.538 24.9218 116.181 25.482C115.825 26.0252 115.358 26.543 114.781 27.0353C114.204 27.5276 113.482 27.9265 112.616 28.2321C111.767 28.5377 110.749 28.6905 109.561 28.6905Z" fill="white"/>
<path d="M88.4961 14.6852C89.4298 14.6852 90.2022 14.8465 90.8134 15.169C91.4245 15.4746 91.9083 15.8396 92.2648 16.264C92.6383 16.6884 92.9099 17.0534 93.0797 17.3589H93.2325V14.9398H95.1168V28.4359H93.2325V26.0168H93.0797C92.9099 26.3393 92.6383 26.7128 92.2648 27.1372C91.9083 27.5446 91.4245 27.9096 90.8134 28.2322C90.2022 28.5377 89.4298 28.6905 88.4961 28.6905C87.4775 28.6905 86.5863 28.4953 85.8224 28.1048C85.0584 27.6974 84.4218 27.1627 83.9125 26.5006C83.4033 25.8215 83.0213 25.0661 82.7667 24.2343C82.529 23.4024 82.4102 22.5536 82.4102 21.6878C82.4102 20.8221 82.529 19.9733 82.7667 19.1414C83.0213 18.3096 83.4033 17.5626 83.9125 16.9006C84.4218 16.2215 85.0584 15.6868 85.8224 15.2963C86.5863 14.8889 87.4775 14.6852 88.4961 14.6852ZM88.7762 16.3404C87.7746 16.3404 86.9428 16.6035 86.2807 17.1297C85.6186 17.656 85.1263 18.3266 84.8038 19.1414C84.4812 19.9563 84.32 20.8051 84.32 21.6878C84.32 22.5706 84.4812 23.4194 84.8038 24.2343C85.1263 25.0491 85.6186 25.7197 86.2807 26.2459C86.9428 26.7722 87.7746 27.0353 88.7762 27.0353C89.7608 27.0353 90.5757 26.7722 91.2208 26.2459C91.8828 25.7197 92.3752 25.0491 92.6977 24.2343C93.0372 23.4194 93.207 22.5706 93.207 21.6878C93.207 20.8051 93.0372 19.9563 92.6977 19.1414C92.3752 18.3266 91.8828 17.656 91.2208 17.1297C90.5757 16.6035 89.7608 16.3404 88.7762 16.3404Z" fill="white"/>
<path d="M79.4551 12.3425C79.0646 12.3425 78.7421 12.2067 78.4874 11.9351C78.2328 11.6635 78.1055 11.3494 78.1055 10.9929C78.1055 10.6194 78.2328 10.3054 78.4874 10.0507C78.7421 9.77912 79.0646 9.64331 79.4551 9.64331C79.8285 9.64331 80.1426 9.77912 80.3972 10.0507C80.6689 10.3054 80.8047 10.6194 80.8047 10.9929C80.8047 11.3664 80.6689 11.6889 80.3972 11.9606C80.1426 12.2152 79.8285 12.3425 79.4551 12.3425ZM78.5129 28.4359V14.9399H80.4227V28.4359H78.5129Z" fill="white"/>
<path d="M69.7197 28.4359V14.9398H71.6295V16.6969H71.7314C72.003 16.1536 72.4189 15.6868 72.9791 15.2963C73.5394 14.8889 74.3203 14.6852 75.3219 14.6852C75.6444 14.6852 75.9245 14.7022 76.1622 14.7361C76.4168 14.7701 76.5441 14.787 76.5441 14.787V16.6205C76.5441 16.6205 76.4083 16.6035 76.1367 16.5695C75.8651 16.5356 75.5765 16.5186 75.2709 16.5186C74.5749 16.5186 73.9468 16.6629 73.3866 16.9515C72.8433 17.2231 72.4104 17.6984 72.0879 18.3775C71.7823 19.0396 71.6295 19.9478 71.6295 21.1022V28.4359H69.7197Z" fill="white"/>
<path d="M66.2798 28.6905C65.0236 28.6905 64.0729 28.3679 63.4278 27.7228C62.7827 27.0777 62.4602 26.1695 62.4602 24.9982V16.5186H60.0156V14.9398H62.4602V11.5276H64.37V14.9398H67.7058V16.5186H64.37V24.9982C64.37 26.3563 65.1 27.0353 66.5599 27.0353C66.9334 27.0353 67.2899 27.0014 67.6294 26.9334C67.9859 26.8655 68.1642 26.8316 68.1642 26.8316V28.4613C68.1642 28.4613 67.969 28.4953 67.5785 28.5632C67.205 28.648 66.7721 28.6905 66.2798 28.6905Z" fill="white"/>
<path d="M52.6553 14.6852C53.589 14.6852 54.3614 14.8465 54.9725 15.169C55.5837 15.4746 56.0675 15.8396 56.424 16.264C56.7975 16.6884 57.0691 17.0534 57.2388 17.3589H57.3916V14.9398H59.276V28.4359H57.3916V26.0168H57.2388C57.0691 26.3393 56.7975 26.7128 56.424 27.1372C56.0675 27.5446 55.5837 27.9096 54.9725 28.2322C54.3614 28.5377 53.589 28.6905 52.6553 28.6905C51.6367 28.6905 50.7455 28.4953 49.9815 28.1048C49.2176 27.6974 48.581 27.1627 48.0717 26.5006C47.5624 25.8215 47.1805 25.0661 46.9258 24.2343C46.6882 23.4024 46.5693 22.5536 46.5693 21.6878C46.5693 20.8221 46.6882 19.9733 46.9258 19.1414C47.1805 18.3096 47.5624 17.5626 48.0717 16.9006C48.581 16.2215 49.2176 15.6868 49.9815 15.2963C50.7455 14.8889 51.6367 14.6852 52.6553 14.6852ZM52.9354 16.3404C51.9338 16.3404 51.102 16.6035 50.4399 17.1297C49.7778 17.656 49.2855 18.3266 48.963 19.1414C48.6404 19.9563 48.4792 20.8051 48.4792 21.6878C48.4792 22.5706 48.6404 23.4194 48.963 24.2343C49.2855 25.0491 49.7778 25.7197 50.4399 26.2459C51.102 26.7722 51.9338 27.0353 52.9354 27.0353C53.92 27.0353 54.7349 26.7722 55.38 26.2459C56.042 25.7197 56.5343 25.0491 56.8569 24.2343C57.1964 23.4194 57.3662 22.5706 57.3662 21.6878C57.3662 20.8051 57.1964 19.9563 56.8569 19.1414C56.5343 18.3266 56.042 17.656 55.38 17.1297C54.7349 16.6035 53.92 16.3404 52.9354 16.3404Z" fill="white"/>
<path d="M37.7762 28.4359L31.0791 9.59235H33.1417L38.9985 26.1696L44.8298 9.59235H46.9178L40.1953 28.4359H37.7762Z" fill="white"/>
</svg>
