<svg width="24" height="24" viewBox="0 0 24 24" fill="none" xmlns="http://www.w3.org/2000/svg">
<path d="M11.999 0.552094C15.0352 0.552094 17.9468 1.75871 20.0938 3.90561C22.2405 6.05249 23.4473 8.96424 23.4473 12.0003C23.4472 15.0364 22.2406 17.9482 20.0938 20.0951C17.9469 22.2419 15.0351 23.4486 11.999 23.4486C8.96293 23.4486 6.05118 22.2419 3.9043 20.0951C1.75748 17.9482 0.55087 15.0364 0.550781 12.0003C0.550781 8.96424 1.7575 6.05249 3.9043 3.90561C6.0512 1.75871 8.96285 0.552094 11.999 0.552094ZM11.999 1.88608C9.31647 1.88608 6.74353 2.95114 4.84668 4.84799C2.94993 6.74483 1.88477 9.31786 1.88477 12.0003C1.88485 14.6828 2.94991 17.2559 4.84668 19.1527C6.74352 21.0494 9.31655 22.1146 11.999 22.1146C14.6815 22.1146 17.2545 21.0494 19.1514 19.1527C21.0481 17.2559 22.1132 14.6828 22.1133 12.0003C22.1133 9.31786 21.0481 6.74483 19.1514 4.84799C17.2545 2.95114 14.6816 1.88608 11.999 1.88608ZM12 4.77084C14.3534 4.77091 16.1475 5.42424 17.4336 6.45639C18.7161 7.48571 19.4491 8.85694 19.7412 10.2201C20.0312 11.5737 19.894 12.9547 19.3926 14.0257C18.8903 15.0981 17.9653 15.9484 16.6875 15.9486C15.8222 15.9486 15.2139 15.6454 14.8848 15.097C14.8313 15.0079 14.7903 14.9155 14.7559 14.8246C14.0189 15.5439 13.0301 15.9486 11.999 15.9486C10.9521 15.9486 9.94739 15.5326 9.20703 14.7923C8.46673 14.052 8.05087 13.0473 8.05078 12.0003C8.05078 10.9534 8.46676 9.94871 9.20703 9.20834C9.94741 8.46797 10.952 8.05209 11.999 8.05209C12.9709 8.05209 13.9056 8.41057 14.627 9.05405C14.6888 8.74967 14.9587 8.52084 15.2812 8.52084C15.6493 8.52104 15.9473 8.81977 15.9473 9.18784V13.8753C15.9473 14.1341 15.9614 14.2999 16.0283 14.4115C16.0512 14.4495 16.0866 14.4898 16.1631 14.5267C16.2479 14.5675 16.4075 14.6146 16.6875 14.6146C17.2841 14.6144 17.8236 14.2338 18.1855 13.4613C18.5482 12.6868 18.6746 11.6064 18.4375 10.4994C18.2023 9.40168 17.6167 8.31179 16.5996 7.49545C15.586 6.68207 14.0993 6.10489 12 6.10483C11.0958 6.10501 10.2035 6.31317 9.39258 6.71323C8.58179 7.11325 7.87358 7.69416 7.32324 8.41147C6.77303 9.12873 6.39514 9.96333 6.21875 10.8499C6.04248 11.7365 6.0718 12.6526 6.30566 13.5257C6.5397 14.399 6.97228 15.2073 7.56836 15.8871C8.16447 16.5668 8.90889 17.1005 9.74414 17.4466C10.5795 17.7927 11.4835 17.9421 12.3857 17.8831C13.2878 17.8241 14.1642 17.5585 14.9473 17.1068C15.2661 16.9228 15.6743 17.0322 15.8584 17.3509C16.0422 17.6698 15.9331 18.0781 15.6143 18.2621C14.654 18.8161 13.5789 19.1419 12.4727 19.2142C11.3663 19.2865 10.2576 19.1034 9.2334 18.679C8.20936 18.2547 7.29631 17.6003 6.56543 16.7669C5.83458 15.9334 5.30553 14.9422 5.01855 13.8714C4.73164 12.8006 4.69494 11.6775 4.91113 10.5902C5.12739 9.5029 5.59088 8.47953 6.26562 7.59995C6.94044 6.72041 7.80856 6.00742 8.80273 5.51694C9.79686 5.02654 10.8905 4.77114 11.999 4.77084H12ZM11.999 9.38608C11.3056 9.38608 10.6407 9.66137 10.1504 10.1517C9.66017 10.642 9.38477 11.307 9.38477 12.0003C9.38485 12.6936 9.66014 13.3587 10.1504 13.849C10.6407 14.3392 11.3057 14.6146 11.999 14.6146C12.6924 14.6146 13.3573 14.3392 13.8477 13.849C14.3379 13.3587 14.6132 12.6936 14.6133 12.0003C14.6133 11.307 14.3379 10.642 13.8477 10.1517C13.3573 9.66137 12.6925 9.38608 11.999 9.38608Z" fill="white" fill-opacity="0.6"/>
</svg>
