<svg width="24" height="24" viewBox="0 0 24 24" fill="none" xmlns="http://www.w3.org/2000/svg">
<path d="M6.66211 1.87183C8.92482 0.679574 11.5224 0.279423 14.0391 0.735107C16.5557 1.19092 18.8479 2.47643 20.5488 4.38647C22.2497 6.29658 23.2617 8.72168 23.4238 11.2742C23.5859 13.8267 22.8889 16.3605 21.4434 18.4705C21.2353 18.7741 20.8203 18.8512 20.5166 18.6433C20.2129 18.4352 20.1347 18.0203 20.3428 17.7166C21.6199 15.8524 22.2369 13.6142 22.0938 11.3591C21.9505 9.10387 21.0556 6.96085 19.5527 5.27319C18.0498 3.58553 16.0245 2.44931 13.8008 2.04663C11.5773 1.64412 9.2823 1.99811 7.2832 3.05151C5.28411 4.10506 3.69545 5.79836 2.77051 7.86011C1.8456 9.92199 1.63816 12.2347 2.18066 14.4285C2.72326 16.622 3.98451 18.5706 5.76367 19.9636C7.54311 21.3567 9.73815 22.1138 11.998 22.114C15.4004 22.1139 16.6144 21.0012 17.041 20.0945C17.246 19.6584 17.3014 19.2064 17.2822 18.8201C16.928 19.0591 16.5246 19.221 16.0967 19.2859C15.4506 19.3837 14.79 19.2603 14.2227 18.9363C14.2142 18.9315 14.2055 18.9268 14.1973 18.9216C10.5224 16.5963 7.40941 13.4832 5.08398 9.80835C5.07877 9.8001 5.07322 9.79143 5.06836 9.78296C4.74386 9.21539 4.62076 8.55435 4.71875 7.90796C4.81685 7.26147 5.13008 6.6663 5.6084 6.22046L6.47754 5.35229C6.85126 4.95224 7.3655 4.71132 7.91309 4.68237C8.4722 4.65296 9.02042 4.84693 9.4375 5.22046C9.44637 5.2284 9.45544 5.23646 9.46387 5.24487L10.917 6.69507L10.9434 6.72241C11.316 7.13968 11.509 7.68815 11.4795 8.24683C11.45 8.80542 11.2006 9.33011 10.7861 9.70581L10.7002 9.78979C11.7663 11.0606 12.9403 12.2369 14.21 13.3044L14.3203 13.1951C14.6944 12.7952 15.2091 12.5548 15.7568 12.5261C16.2454 12.5007 16.7256 12.6453 17.1172 12.9314L17.2793 13.0632L17.3066 13.0886L18.7588 14.5408L18.7842 14.5671C19.1577 14.9842 19.3515 15.5324 19.3223 16.0916C19.2936 16.6397 19.0518 17.1539 18.6514 17.5281L18.4307 17.7478C18.4331 17.7548 18.4362 17.7615 18.4385 17.7683C18.514 17.9929 18.5739 18.2654 18.6025 18.5652C18.6597 19.1634 18.5973 19.9182 18.2471 20.6628C17.5158 22.2168 15.6824 23.4479 11.998 23.448C9.44027 23.4477 6.95638 22.5901 4.94238 21.0134C2.92837 19.4367 1.49983 17.2308 0.885742 14.7478C0.271841 12.265 0.506912 9.64779 1.55371 7.31421C2.60062 4.98057 4.39936 3.06425 6.66211 1.87183ZM7.9834 6.0144C7.77652 6.02537 7.58241 6.11768 7.44336 6.27124C7.43593 6.27946 7.42775 6.28782 7.41992 6.29565L6.53418 7.18042C6.52887 7.18572 6.52307 7.19093 6.51758 7.19604C6.25928 7.43684 6.09019 7.75806 6.03711 8.10718C5.98494 8.45103 6.04852 8.80274 6.21777 9.1062C8.43365 12.6043 11.3968 15.5685 14.8945 17.7849C15.1987 17.9555 15.5514 18.0197 15.8965 17.9675C16.2456 17.9146 16.5676 17.7461 16.8086 17.488L16.8242 17.4714L17.709 16.5857C17.7167 16.578 17.7253 16.5706 17.7334 16.5632C17.8871 16.424 17.9793 16.2293 17.9902 16.0222C18.001 15.817 17.9307 15.6157 17.7949 15.4617L16.3848 14.0515C16.231 13.9168 16.0305 13.8475 15.8262 13.8582C15.6192 13.869 15.4245 13.9605 15.2852 14.114C15.2778 14.1221 15.2704 14.1307 15.2627 14.1384L14.7236 14.6765C14.4828 14.9169 14.099 14.9368 13.834 14.7234C12.157 13.3721 10.6298 11.8442 9.28027 10.1658C9.06683 9.9002 9.08873 9.51565 9.33008 9.27515L9.86816 8.73901L9.89062 8.71753C10.0443 8.57817 10.1365 8.38366 10.1475 8.17651C10.1583 7.97143 10.0885 7.77015 9.95312 7.61597L8.54785 6.21362L8.48828 6.16479C8.34309 6.05848 8.16466 6.0049 7.9834 6.0144Z" fill="white" fill-opacity="0.6"/>
</svg>
