<svg width="1345" height="1357" viewBox="0 0 1345 1357" fill="none" xmlns="http://www.w3.org/2000/svg">
<path d="M442.5 231.5H1250.89C1302.59 231.5 1344.5 189.59 1344.5 137.892C1344.5 86.2781 1302.72 44.4034 1251.11 44.2842L954.5 43.5993C930.736 43.5444 911.5 24.2643 911.5 0.5" stroke="url(#paint0_linear_2054_330)"/>
<path d="M566.5 418.5L1117.84 418.5C1169.57 418.5 1211.5 460.431 1211.5 512.156C1211.5 563.759 1169.76 605.639 1118.16 605.811L911.5 606.5" stroke="white" stroke-opacity="0.2"/>
<path d="M433.5 794.5L1250.89 794.5C1302.59 794.5 1344.5 836.41 1344.5 888.108C1344.5 939.722 1302.72 981.597 1251.11 981.716L911.5 982.5" stroke="white" stroke-opacity="0.2"/>
<path d="M433.5 1169.5L1251 1169.5C1302.64 1169.5 1344.5 1211.36 1344.5 1263C1344.5 1314.64 1302.64 1356.5 1251 1356.5H827.5" stroke="white" stroke-opacity="0.2"/>
<path d="M911.5 606.5L93.6095 606.5C42.1865 606.5 0.5 648.187 0.5 699.61C0.5 750.949 42.0563 792.601 93.3957 792.719L433.5 793.5" stroke="white" stroke-opacity="0.2"/>
<path d="M911.5 982.499L343.755 982.5C292.252 982.5 250.5 1024.25 250.5 1075.76C250.5 1127.06 291.944 1168.73 343.249 1169.01L433.5 1169.5" stroke="white" stroke-opacity="0.2"/>
<path d="M442.5 231.5L227 231.5C175.361 231.5 133.5 273.361 133.5 325C133.5 376.639 175.361 418.5 227 418.5H566.5" stroke="white" stroke-opacity="0.2"/>
<path d="M1344.5 0.500072L517.5 0.5" stroke="white" stroke-opacity="0.2"/>
<defs>
<linearGradient id="paint0_linear_2054_330" x1="911" y1="0.499994" x2="911" y2="290.5" gradientUnits="userSpaceOnUse">
<stop stop-color="white"/>
<stop offset="1" stop-color="white" stop-opacity="0"/>
</linearGradient>
</defs>
</svg>
